<?xml version="1.0" standalone="no"?>
<!DOCTYPE svg PUBLIC "-//W3C//DTD SVG 1.1//EN" "http://www.w3.org/Graphics/SVG/1.1/DTD/svg11.dtd">
<svg version="1.1" xmlns="http://www.w3.org/2000/svg" viewBox="0 0 391.52990605312243 246.94008352712387" width="1174.5897181593673" height="740.8202505813716"><!-- svg-source:excalidraw --><metadata></metadata><defs><style class="style-fonts">
      </style></defs><g stroke-linecap="round" transform="translate(10 163.2310840506749) rotate(0 22.951171875 36.85449973822449)"><path d="M0 0 L45.9 0 L45.9 73.71 L0 73.71" stroke="none" stroke-width="0" fill="#e9ecef"></path><path d="M0 0 C14.32 0, 28.64 0, 45.9 0 M0 0 C11.31 0, 22.62 0, 45.9 0 M45.9 0 C45.9 26.67, 45.9 53.34, 45.9 73.71 M45.9 0 C45.9 24.03, 45.9 48.06, 45.9 73.71 M45.9 73.71 C36.35 73.71, 26.8 73.71, 0 73.71 M45.9 73.71 C30.78 73.71, 15.65 73.71, 0 73.71 M0 73.71 C0 57.83, 0 41.96, 0 0 M0 73.71 C0 57.55, 0 41.39, 0 0" stroke="transparent" stroke-width="1" fill="none"></path></g><g stroke-linecap="round" transform="translate(114.34279288154016 122.35034109836067) rotate(0 22.951171875 56.67691423254837)"><path d="M0 0 L45.9 0 L45.9 113.35 L0 113.35" stroke="none" stroke-width="0" fill="#e9ecef"></path><path d="M0 0 C9.66 0, 19.31 0, 45.9 0 M0 0 C11.66 0, 23.31 0, 45.9 0 M45.9 0 C45.9 27.57, 45.9 55.14, 45.9 113.35 M45.9 0 C45.9 44.05, 45.9 88.11, 45.9 113.35 M45.9 113.35 C32.01 113.35, 18.11 113.35, 0 113.35 M45.9 113.35 C30.63 113.35, 15.36 113.35, 0 113.35 M0 113.35 C0 78.36, 0 43.37, 0 0 M0 113.35 C0 75.68, 0 38.01, 0 0" stroke="transparent" stroke-width="1" fill="none"></path></g><g stroke-linecap="round" transform="translate(224.2855248697324 141.50513673264504) rotate(0 22.951171875 47.55530783227351)"><path d="M0 0 L45.9 0 L45.9 95.11 L0 95.11" stroke="none" stroke-width="0" fill="#868e96"></path><path d="M0 0 C16.65 0, 33.3 0, 45.9 0 M0 0 C9.71 0, 19.42 0, 45.9 0 M45.9 0 C45.9 25.36, 45.9 50.73, 45.9 95.11 M45.9 0 C45.9 28.72, 45.9 57.44, 45.9 95.11 M45.9 95.11 C32.38 95.11, 18.85 95.11, 0 95.11 M45.9 95.11 C35.87 95.11, 25.84 95.11, 0 95.11 M0 95.11 C0 61.83, 0 28.55, 0 0 M0 95.11 C0 74.87, 0 54.63, 0 0" stroke="transparent" stroke-width="1" fill="none"></path></g><g stroke-linecap="round" transform="translate(335.4030937681066 115.93447861136872) rotate(0 22.951171875 60.11253481527217)"><path d="M0 0 L45.9 0 L45.9 120.23 L0 120.23" stroke="none" stroke-width="0" fill="#868e96"></path><path d="M0 0 C12.28 0, 24.57 0, 45.9 0 M0 0 C14.04 0, 28.09 0, 45.9 0 M45.9 0 C45.9 28.17, 45.9 56.35, 45.9 120.23 M45.9 0 C45.9 25.61, 45.9 51.22, 45.9 120.23 M45.9 120.23 C30.45 120.23, 14.99 120.23, 0 120.23 M45.9 120.23 C32.26 120.23, 18.62 120.23, 0 120.23 M0 120.23 C0 73.39, 0 26.56, 0 0 M0 120.23 C0 91.67, 0 63.11, 0 0" stroke="transparent" stroke-width="1" fill="none"></path></g><g stroke-linecap="round" transform="translate(10.197522557170487 11.902739946658471) rotate(0 22.852484988701235 75.62890625)"><path d="M0 0 L45.7 0 L45.7 151.26 L0 151.26" stroke="none" stroke-width="0" fill="#868e96"></path><path d="M0 0 C9.36 0, 18.71 0, 45.7 0 M0 0 C14.44 0, 28.89 0, 45.7 0 M45.7 0 C45.7 31.45, 45.7 62.91, 45.7 151.26 M45.7 0 C45.7 50.34, 45.7 100.68, 45.7 151.26 M45.7 151.26 C35.68 151.26, 25.65 151.26, 0 151.26 M45.7 151.26 C31.31 151.26, 16.91 151.26, 0 151.26 M0 151.26 C0 91.7, 0 32.13, 0 0 M0 151.26 C0 107.22, 0 63.19, 0 0" stroke="transparent" stroke-width="1" fill="none"></path></g><g stroke-linecap="round" transform="translate(114.41452369484455 12.688641324044738) rotate(0 22.852484988701235 54.7036264622767)"><path d="M0 0 L45.7 0 L45.7 109.41 L0 109.41" stroke="none" stroke-width="0" fill="#868e96"></path><path d="M0 0 C10.6 0, 21.21 0, 45.7 0 M0 0 C12.15 0, 24.31 0, 45.7 0 M45.7 0 C45.7 22.49, 45.7 44.98, 45.7 109.41 M45.7 0 C45.7 31.66, 45.7 63.33, 45.7 109.41 M45.7 109.41 C28.89 109.41, 12.08 109.41, 0 109.41 M45.7 109.41 C31.66 109.41, 17.62 109.41, 0 109.41 M0 109.41 C0 72.06, 0 34.7, 0 0 M0 109.41 C0 74.5, 0 39.59, 0 0" stroke="transparent" stroke-width="1" fill="none"></path></g><g stroke-linecap="round" transform="translate(223.9109900197268 12.376926030960021) rotate(0 23.283203125 64.35958180240846)"><path d="M0 0 L46.57 0 L46.57 128.72 L0 128.72" stroke="none" stroke-width="0" fill="#e9ecef"></path><path d="M0 0 C11.33 0, 22.65 0, 46.57 0 M0 0 C18.1 0, 36.2 0, 46.57 0 M46.57 0 C46.57 38.97, 46.57 77.94, 46.57 128.72 M46.57 0 C46.57 42.83, 46.57 85.66, 46.57 128.72 M46.57 128.72 C32.19 128.72, 17.82 128.72, 0 128.72 M46.57 128.72 C31.09 128.72, 15.62 128.72, 0 128.72 M0 128.72 C0 95.76, 0 62.79, 0 0 M0 128.72 C0 98.88, 0 69.03, 0 0" stroke="transparent" stroke-width="1" fill="none"></path></g><g stroke-linecap="round" transform="translate(334.96349980312243 10) rotate(0 23.283203125 53.39779272183233)"><path d="M0 0 L46.57 0 L46.57 106.8 L0 106.8" stroke="none" stroke-width="0" fill="#e9ecef"></path><path d="M0 0 C12.42 0, 24.84 0, 46.57 0 M0 0 C14.06 0, 28.12 0, 46.57 0 M46.57 0 C46.57 31.46, 46.57 62.93, 46.57 106.8 M46.57 0 C46.57 23.34, 46.57 46.67, 46.57 106.8 M46.57 106.8 C30.27 106.8, 13.98 106.8, 0 106.8 M46.57 106.8 C36.66 106.8, 26.75 106.8, 0 106.8 M0 106.8 C0 84.59, 0 62.38, 0 0 M0 106.8 C0 65.36, 0 23.93, 0 0" stroke="transparent" stroke-width="1" fill="none"></path></g></svg>