<?xml version="1.0" standalone="no"?>
<!DOCTYPE svg PUBLIC "-//W3C//DTD SVG 1.1//EN" "http://www.w3.org/Graphics/SVG/1.1/DTD/svg11.dtd">
<svg version="1.1" xmlns="http://www.w3.org/2000/svg" viewBox="0 0 439.7437091364245 273.1690624798091" width="1319.2311274092735" height="819.5071874394273"><!-- svg-source:excalidraw --><metadata></metadata><defs><style class="style-fonts">
      </style></defs><g stroke-linecap="round" transform="translate(58.5069828694709 56.18069015022107) rotate(0 22.951171875 103.4886235714796)"><path d="M0 0 L45.9 0 L45.9 206.98 L0 206.98" stroke="none" stroke-width="0" fill="#e9ecef"></path><path d="M0 0 C17.87 0, 35.75 0, 45.9 0 M0 0 C17.83 0, 35.66 0, 45.9 0 M45.9 0 C45.9 62.27, 45.9 124.54, 45.9 206.98 M45.9 0 C45.9 74.68, 45.9 149.35, 45.9 206.98 M45.9 206.98 C28.31 206.98, 10.72 206.98, 0 206.98 M45.9 206.98 C31.14 206.98, 16.38 206.98, 0 206.98 M0 206.98 C0 160.48, 0 113.97, 0 0 M0 206.98 C0 128.05, 0 49.11, 0 0" stroke="transparent" stroke-width="1" fill="none"></path></g><g stroke-linecap="round" transform="translate(337.4109854769272 55.36534858405847) rotate(0 22.951171875 103.4886235714796)"><path d="M0 0 L45.9 0 L45.9 206.98 L0 206.98" stroke="none" stroke-width="0" fill="#868e96"></path><path d="M0 0 C10.81 0, 21.62 0, 45.9 0 M0 0 C11.1 0, 22.21 0, 45.9 0 M45.9 0 C45.9 47.37, 45.9 94.73, 45.9 206.98 M45.9 0 C45.9 68.4, 45.9 136.8, 45.9 206.98 M45.9 206.98 C28.29 206.98, 10.68 206.98, 0 206.98 M45.9 206.98 C35.3 206.98, 24.69 206.98, 0 206.98 M0 206.98 C0 164.97, 0 122.97, 0 0 M0 206.98 C0 160.94, 0 114.9, 0 0" stroke="transparent" stroke-width="1" fill="none"></path></g><g stroke-linecap="round" transform="translate(244.5596311621855 157.62536636431642) rotate(0 22.951171875 52.67071108859659)"><path d="M0 0 L45.9 0 L45.9 105.34 L0 105.34" stroke="none" stroke-width="0" fill="#868e96"></path><path d="M0 0 C12.81 0, 25.62 0, 45.9 0 M0 0 C10.91 0, 21.82 0, 45.9 0 M45.9 0 C45.9 30.62, 45.9 61.23, 45.9 105.34 M45.9 0 C45.9 26.31, 45.9 52.62, 45.9 105.34 M45.9 105.34 C30.92 105.34, 15.95 105.34, 0 105.34 M45.9 105.34 C33.82 105.34, 21.74 105.34, 0 105.34 M0 105.34 C0 74.74, 0 44.14, 0 0 M0 105.34 C0 78.27, 0 51.2, 0 0" stroke="transparent" stroke-width="1" fill="none"></path></g><g stroke-linecap="round" transform="translate(104.40646251746693 111.91124997980907) rotate(0 23.283203125 75.62890625)"><path d="M0 0 L46.57 0 L46.57 151.26 L0 151.26" stroke="none" stroke-width="0" fill="#868e96"></path><path d="M0 0 C16.01 0, 32.03 0, 46.57 0 M0 0 C11.15 0, 22.31 0, 46.57 0 M46.57 0 C46.57 53.55, 46.57 107.11, 46.57 151.26 M46.57 0 C46.57 36.93, 46.57 73.86, 46.57 151.26 M46.57 151.26 C28.13 151.26, 9.7 151.26, 0 151.26 M46.57 151.26 C32.81 151.26, 19.06 151.26, 0 151.26 M0 151.26 C0 110.96, 0 70.67, 0 0 M0 151.26 C0 113.28, 0 75.3, 0 0" stroke="transparent" stroke-width="1" fill="none"></path></g><g stroke-linecap="round" transform="translate(383.1773028864245 75.9642222718224) rotate(0 23.283203125 93.17268128616935)"><path d="M0 0 L46.57 0 L46.57 186.35 L0 186.35" stroke="none" stroke-width="0" fill="#e9ecef"></path><path d="M0 0 C12.31 0, 24.61 0, 46.57 0 M0 0 C11.18 0, 22.37 0, 46.57 0 M46.57 0 C46.57 49.56, 46.57 99.11, 46.57 186.35 M46.57 0 C46.57 46.72, 46.57 93.45, 46.57 186.35 M46.57 186.35 C31.78 186.35, 17 186.35, 0 186.35 M46.57 186.35 C32.41 186.35, 18.24 186.35, 0 186.35 M0 186.35 C0 138.68, 0 91.01, 0 0 M0 186.35 C0 115.37, 0 44.4, 0 0" stroke="transparent" stroke-width="1" fill="none"></path></g><g stroke-linecap="round" transform="translate(197.64919445093278 10) rotate(0 23.283203125 126.36860252997063)"><path d="M0 0 L46.57 0 L46.57 252.74 L0 252.74" stroke="none" stroke-width="0" fill="#e9ecef"></path><path d="M0 0 C12.55 0, 25.1 0, 46.57 0 M0 0 C15.38 0, 30.76 0, 46.57 0 M46.57 0 C46.57 77.39, 46.57 154.79, 46.57 252.74 M46.57 0 C46.57 91.82, 46.57 183.65, 46.57 252.74 M46.57 252.74 C27.96 252.74, 9.34 252.74, 0 252.74 M46.57 252.74 C31.11 252.74, 15.65 252.74, 0 252.74 M0 252.74 C0 195.83, 0 138.92, 0 0 M0 252.74 C0 161.79, 0 70.83, 0 0" stroke="transparent" stroke-width="1" fill="none"></path></g><g stroke-linecap="round"><g transform="translate(99.40646251746693 187.44015622980905) rotate(0 -44.70323125873347 0.0026655366910404155)"><path d="M0 0 C-32.86 0, -65.72 0, -89.41 0.01 M0 0 C-33.53 0, -67.06 0, -89.41 0.01" stroke="transparent" stroke-width="1" fill="none"></path></g><g transform="translate(99.40646251746693 187.44015622980905) rotate(0 -44.70323125873347 0.0026655366910404155)"><path d="M-65.91 -8.55 C-74.55 -5.4, -83.18 -2.26, -89.41 0.01 M-65.91 -8.55 C-74.72 -5.34, -83.53 -2.13, -89.41 0.01" stroke="transparent" stroke-width="1" fill="none"></path></g><g transform="translate(99.40646251746693 187.44015622980905) rotate(0 -44.70323125873347 0.0026655366910404155)"><path d="M-65.91 8.55 C-74.55 5.41, -83.18 2.27, -89.41 0.01 M-65.91 8.55 C-74.72 5.35, -83.53 2.14, -89.41 0.01" stroke="transparent" stroke-width="1" fill="none"></path></g></g><mask></mask></svg>