<?xml version="1.0" standalone="no"?>
<!DOCTYPE svg PUBLIC "-//W3C//DTD SVG 1.1//EN" "http://www.w3.org/Graphics/SVG/1.1/DTD/svg11.dtd">
<svg version="1.1" xmlns="http://www.w3.org/2000/svg" viewBox="0 0 410.7515249848393 215.84443278068375" width="1232.254574954518" height="647.5332983420512"><!-- svg-source:excalidraw --><metadata></metadata><defs><style class="style-fonts">
      </style></defs><g stroke-linecap="round"><g transform="translate(10 151.88909165074801) rotate(0 48.79556266487816 -41.29331865902668)"><path d="M0 0 C30.28 -25.62, 60.55 -51.24, 97.59 -82.59 M0 0 C31.33 -26.51, 62.66 -53.02, 97.59 -82.59" stroke="#000000" stroke-width="4" fill="none"></path></g></g><mask></mask><g stroke-linecap="round"><g transform="translate(107.3816643291998 69.60849953365368) rotate(0 25.363957074443306 29.957348312001614)"><path d="M0 0 C20.26 23.93, 40.52 47.85, 50.73 59.91 M0 0 C15.47 18.28, 30.95 36.55, 50.73 59.91" stroke="#000000" stroke-width="4" fill="none"></path></g></g><mask></mask><g stroke-linecap="round"><g transform="translate(158.1095784780864 129.5231961576569) rotate(0 18.349963710734073 -26.871486247463395)"><path d="M0 0 C14.45 -21.16, 28.9 -42.32, 36.7 -53.74 M0 0 C12.5 -18.3, 24.99 -36.6, 36.7 -53.74" stroke="#000000" stroke-width="4" fill="none"></path></g></g><mask></mask><g stroke-linecap="round"><g transform="translate(194.80950589955455 75.78022366273012) rotate(0 16.585771058158798 44.230197899225345)"><path d="M0 0 C10 26.66, 19.99 53.32, 33.17 88.46 M0 0 C9.74 25.96, 19.47 51.92, 33.17 88.46" stroke="#000000" stroke-width="4" fill="none"></path></g></g><mask></mask><g stroke-linecap="round"><g transform="translate(227.5650761696961 164.2406194611808) rotate(0 48.5108727134176 -35.74997753161995)"><path d="M0 0 C26.57 -19.58, 53.13 -39.16, 97.02 -71.5 M0 0 C20.05 -14.78, 40.11 -29.56, 97.02 -71.5" stroke="#000000" stroke-width="4" fill="none"></path></g></g><mask></mask><g stroke-linecap="round"><g transform="translate(324.5868215965313 92.6440621945685) rotate(0 31.914776112977847 20.21888686358784)"><path d="M0 0 C16.79 10.64, 33.59 21.28, 63.83 40.44 M0 0 C17.65 11.18, 35.3 22.36, 63.83 40.44" stroke="#000000" stroke-width="4" fill="none"></path></g></g><mask></mask><g stroke-linecap="round"><g transform="translate(388.416373822487 133.0818359217442) rotate(0 1.0561554675953175 -5.714450113776934)"><path d="M0 0 C0.49 -2.68, 0.99 -5.35, 2.11 -11.43 M0 0 C0.74 -4.01, 1.48 -8.01, 2.11 -11.43" stroke="#000000" stroke-width="4" fill="none"></path></g></g><mask></mask><g stroke-linecap="round"><g transform="translate(18.769620146335228 53.51443330398456) rotate(0 35.661163628850204 64.32811537970849)"><path d="M0 0 C19.39 34.98, 38.79 69.96, 71.32 128.66" stroke="#828e96" stroke-width="4.5" fill="none" stroke-dasharray="8 12"></path></g></g><mask></mask><g stroke-linecap="round"><g transform="translate(90.09194740403564 182.2812189723934) rotate(0 37.10637407575871 -86.1406094861967)"><path d="M0 0 C15.29 -35.49, 30.58 -70.99, 74.21 -172.28" stroke="#828e96" stroke-width="4.5" fill="none" stroke-dasharray="8 12"></path></g></g><mask></mask><g stroke-linecap="round"><g transform="translate(165.45523040908893 15.135155560979229) rotate(0 12.325456712502046 71.93551249979203)"><path d="M0 0 C9.37 54.71, 18.75 109.42, 24.65 143.87" stroke="#828e96" stroke-width="4.5" fill="none" stroke-dasharray="8 12"></path></g></g><mask></mask><g stroke-linecap="round"><g transform="translate(189.62729599486238 155.65641241825347) rotate(0 51.678732187727064 25.09401018121514)"><path d="M0 0 C25.82 12.54, 51.64 25.07, 103.36 50.19" stroke="#828e96" stroke-width="4.5" fill="none" stroke-dasharray="8 12"></path></g></g><mask></mask><g stroke-linecap="round"><g transform="translate(292.9847603703165 205.84443278068375) rotate(0 25.861033416905684 -25.979120327485134)"><path d="M0 0 C20.41 -20.51, 40.83 -41.01, 51.72 -51.96" stroke="#828e96" stroke-width="4.5" fill="none" stroke-dasharray="8 12"></path></g></g><mask></mask><g stroke-linecap="round"><g transform="translate(344.7068272041279 153.88619212571348) rotate(0 0.5297660483794289 -56.58313075830779)"><path d="M0 0 C0.26 -28.02, 0.52 -56.04, 1.06 -113.17" stroke="#828e96" stroke-width="4.5" fill="none" stroke-dasharray="8 12"></path></g></g><mask></mask><g stroke-linecap="round"><g transform="translate(345.76635930088673 40.7199306090979) rotate(0 27.492582841976287 24.845919332383005)"><path d="M0 0 C13.77 12.44, 27.53 24.88, 54.99 49.69" stroke="#828e96" stroke-width="4.5" fill="none" stroke-dasharray="8 12"></path></g></g><mask></mask></svg>