<?xml version="1.0" standalone="no"?>
<!DOCTYPE svg PUBLIC "-//W3C//DTD SVG 1.1//EN" "http://www.w3.org/Graphics/SVG/1.1/DTD/svg11.dtd">
<svg version="1.1" xmlns="http://www.w3.org/2000/svg" viewBox="0 0 391.5920023341514 245.0373435804654" width="1174.7760070024542" height="735.1120307413962"><!-- svg-source:excalidraw --><metadata></metadata><defs><style class="style-fonts">
      </style></defs><g stroke-linecap="round" transform="translate(10 161.32834410401642) rotate(0 22.951171875 36.85449973822449)"><path d="M0 0 L45.9 0 L45.9 73.71 L0 73.71" stroke="none" stroke-width="0" fill="#e9ecef"></path><path d="M0 0 C14.29 0, 28.58 0, 45.9 0 M0 0 C13.74 0, 27.47 0, 45.9 0 M45.9 0 C45.9 23.57, 45.9 47.14, 45.9 73.71 M45.9 0 C45.9 15.39, 45.9 30.78, 45.9 73.71 M45.9 73.71 C36.01 73.71, 26.11 73.71, 0 73.71 M45.9 73.71 C29.17 73.71, 12.44 73.71, 0 73.71 M0 73.71 C0 55.21, 0 36.72, 0 0 M0 73.71 C0 45.11, 0 16.51, 0 0" stroke="transparent" stroke-width="1" fill="none"></path></g><g stroke-linecap="round" transform="translate(114.34279288154016 120.4476011517022) rotate(0 22.951171875 56.67691423254837)"><path d="M0 0 L45.9 0 L45.9 113.35 L0 113.35" stroke="none" stroke-width="0" fill="#e9ecef"></path><path d="M0 0 C9.85 0, 19.69 0, 45.9 0 M0 0 C16.62 0, 33.24 0, 45.9 0 M45.9 0 C45.9 31.36, 45.9 62.73, 45.9 113.35 M45.9 0 C45.9 26.09, 45.9 52.18, 45.9 113.35 M45.9 113.35 C31.72 113.35, 17.54 113.35, 0 113.35 M45.9 113.35 C33.73 113.35, 21.56 113.35, 0 113.35 M0 113.35 C0 84.09, 0 54.82, 0 0 M0 113.35 C0 88.17, 0 62.99, 0 0" stroke="transparent" stroke-width="1" fill="none"></path></g><g stroke-linecap="round" transform="translate(224.2855248697324 190.08861377125675) rotate(0 22.951171875 22.31219933963837)"><path d="M0 0 L45.9 0 L45.9 44.62 L0 44.62" stroke="none" stroke-width="0" fill="#868e96"></path><path d="M0 0 C16.8 0, 33.6 0, 45.9 0 M0 0 C11.4 0, 22.8 0, 45.9 0 M45.9 0 C45.9 9.12, 45.9 18.23, 45.9 44.62 M45.9 0 C45.9 11.75, 45.9 23.49, 45.9 44.62 M45.9 44.62 C32.61 44.62, 19.32 44.62, 0 44.62 M45.9 44.62 C34.04 44.62, 22.18 44.62, 0 44.62 M0 44.62 C0 34.67, 0 24.71, 0 0 M0 44.62 C0 33.67, 0 22.72, 0 0" stroke="transparent" stroke-width="1" fill="none"></path></g><g stroke-linecap="round" transform="translate(335.4030937681066 163.57098736428975) rotate(0 22.951171875 35.34291046548236)"><path d="M0 0 L45.9 0 L45.9 70.69 L0 70.69" stroke="none" stroke-width="0" fill="#868e96"></path><path d="M0 0 C13.23 0, 26.46 0, 45.9 0 M0 0 C10.01 0, 20.03 0, 45.9 0 M45.9 0 C45.9 19.69, 45.9 39.38, 45.9 70.69 M45.9 0 C45.9 17.16, 45.9 34.32, 45.9 70.69 M45.9 70.69 C29.26 70.69, 12.61 70.69, 0 70.69 M45.9 70.69 C30.36 70.69, 14.81 70.69, 0 70.69 M0 70.69 C0 51.5, 0 32.32, 0 0 M0 70.69 C0 45.26, 0 19.83, 0 0" stroke="transparent" stroke-width="1" fill="none"></path></g><g stroke-linecap="round" transform="translate(10.197522557170487 10) rotate(0 22.852484988701235 75.62890625)"><path d="M0 0 L45.7 0 L45.7 151.26 L0 151.26" stroke="none" stroke-width="0" fill="#868e96"></path><path d="M0 0 C17.03 0, 34.06 0, 45.7 0 M0 0 C10.73 0, 21.46 0, 45.7 0 M45.7 0 C45.7 34.72, 45.7 69.43, 45.7 151.26 M45.7 0 C45.7 48.67, 45.7 97.35, 45.7 151.26 M45.7 151.26 C33.36 151.26, 21.01 151.26, 0 151.26 M45.7 151.26 C28.09 151.26, 10.48 151.26, 0 151.26 M0 151.26 C0 94.04, 0 36.81, 0 0 M0 151.26 C0 108.53, 0 65.8, 0 0" stroke="transparent" stroke-width="1" fill="none"></path></g><g stroke-linecap="round" transform="translate(114.41452369484455 59.62656691539098) rotate(0 22.852484988701235 30.283293693274345)"><path d="M0 0 L45.7 0 L45.7 60.57 L0 60.57" stroke="none" stroke-width="0" fill="#868e96"></path><path d="M0 0 C14.74 0, 29.49 0, 45.7 0 M0 0 C15.06 0, 30.12 0, 45.7 0 M45.7 0 C45.7 21.43, 45.7 42.87, 45.7 60.57 M45.7 0 C45.7 23.75, 45.7 47.5, 45.7 60.57 M45.7 60.57 C27.5 60.57, 9.29 60.57, 0 60.57 M45.7 60.57 C28.44 60.57, 11.18 60.57, 0 60.57 M0 60.57 C0 37.52, 0 14.46, 0 0 M0 60.57 C0 42.41, 0 24.26, 0 0" stroke="transparent" stroke-width="1" fill="none"></path></g><g stroke-linecap="round" transform="translate(223.97308630075577 35.51451140920176) rotate(0 23.283203125 80.8645792490093)"><path d="M0 0 L46.57 0 L46.57 161.73 L0 161.73" stroke="none" stroke-width="0" fill="#e9ecef"></path><path d="M0 0 C14.52 0, 29.04 0, 46.57 0 M0 0 C17.92 0, 35.85 0, 46.57 0 M46.57 0 C46.57 37.31, 46.57 74.62, 46.57 161.73 M46.57 0 C46.57 39.42, 46.57 78.84, 46.57 161.73 M46.57 161.73 C32.4 161.73, 18.24 161.73, 0 161.73 M46.57 161.73 C35.05 161.73, 23.53 161.73, 0 161.73 M0 161.73 C0 105.2, 0 48.67, 0 0 M0 161.73 C0 111.85, 0 61.98, 0 0" stroke="transparent" stroke-width="1" fill="none"></path></g><g stroke-linecap="round" transform="translate(335.0255960841514 83.67425559184778) rotate(0 23.283203125 42.68327348117543)"><path d="M0 0 L46.57 0 L46.57 85.37 L0 85.37" stroke="none" stroke-width="0" fill="#e9ecef"></path><path d="M0 0 C13.61 0, 27.23 0, 46.57 0 M0 0 C9.75 0, 19.49 0, 46.57 0 M46.57 0 C46.57 18.04, 46.57 36.08, 46.57 85.37 M46.57 0 C46.57 28.01, 46.57 56.01, 46.57 85.37 M46.57 85.37 C36.54 85.37, 26.5 85.37, 0 85.37 M46.57 85.37 C31.17 85.37, 15.77 85.37, 0 85.37 M0 85.37 C0 57.32, 0 29.28, 0 0 M0 85.37 C0 54.31, 0 23.25, 0 0" stroke="transparent" stroke-width="1" fill="none"></path></g></svg>